
		<svg width="3197.3684210526317" height="1529.6052631578946" xmlns="http://www.w3.org/2000/svg" xmlns:xlink="http://www.w3.org/1999/xlink" version="1.1">
            <g transform="scale(9.868421052631579) translate(10, 10)">
				<defs id="SvgjsDefs1282"/><g id="main_text" rel="mainfill" name="main_text" feature="main_text" xmlns:name="mainText_mainfill" groupName="main_text" fill="#000000" transform="translate(-5.6614690019469975, -7.4736718986958515) scale(3.494734713023044)"><path d="M12.2 16.96 c0.4 0 0.7 0.32 0.7 0.72 l0 1.46 c0 0.38 -0.3 0.7 -0.7 0.7 l-9.88 0 c-0.38 0 -0.7 -0.32 -0.7 -0.7 l0 -1.46 c0 -0.4 0.32 -0.72 0.7 -0.72 l9.88 0 z M2.32 13.86 c-0.38 0 -0.7 -0.32 -0.7 -0.7 l0 -1.5 c0 -0.38 0.32 -0.7 0.7 -0.7 l8.98 0 c0.4 0 0.72 0.32 0.72 0.7 l0 1.5 c0 0.38 -0.32 0.7 -0.72 0.7 l-8.98 0 z M12.2 5 c0.4 0 0.7 0.32 0.7 0.7 l0 1.46 c0 0.4 -0.3 0.72 -0.7 0.72 l-9.88 0 c-0.38 0 -0.7 -0.32 -0.7 -0.72 l0 -1.46 c0 -0.38 0.32 -0.7 0.7 -0.7 l9.88 0 z M24.714270833333337 16.84 c0.4 0 0.7 0.32 0.7 0.7 l0 1.44 c0 0.38 -0.3 0.7 -0.7 0.7 l-8.74 0 c-0.38 0 -0.7 -0.32 -0.7 -0.7 l0 -13.28 c0 -0.38 0.32 -0.7 0.7 -0.7 l1.5 0 c0.38 0 0.7 0.32 0.7 0.7 l0 11.14 l6.54 0 z M39.02854166666667 5 c0.26 0 0.5 0.14 0.62 0.38 c0.12 0.22 0.1 0.5 -0.04 0.72 l-5.44 7.84 l0 5.04 c0 0.38 -0.32 0.7 -0.7 0.7 l-1.5 0 c-0.38 0 -0.7 -0.32 -0.7 -0.7 l0 -5.04 l-5.46 -7.84 c-0.14 -0.22 -0.16 -0.5 -0.04 -0.72 c0.12 -0.24 0.36 -0.38 0.62 -0.38 l1.82 0 c0.24 0 0.44 0.12 0.58 0.3 l3.92 5.64 l3.92 -5.64 c0.14 -0.18 0.34 -0.3 0.58 -0.3 l1.82 0 z M51.002812500000005 12.42 c1.12 0.72 1.74 1.78 1.74 3.06 c0 1.48 -0.58 2.62 -1.7 3.42 c-1.04 0.72 -2.48 1.1 -4.26 1.1 c-2.02 0 -3.6 -0.44 -4.7 -1.32 c-1.02 -0.82 -1.6 -1.98 -1.74 -3.44 c-0.02 -0.2 0.04 -0.4 0.18 -0.54 s0.32 -0.22 0.52 -0.22 l1.56 0 c0.38 0 0.68 0.28 0.7 0.64 c0.04 0.68 0.34 1.16 0.98 1.54 c0.6 0.34 1.46 0.52 2.52 0.52 c3.04 0 3.04 -1.2 3.04 -1.64 c0 -0.32 -0.12 -0.52 -0.38 -0.7 c-0.38 -0.26 -0.88 -0.48 -1.48 -0.66 c-0.66 -0.2 -1.38 -0.38 -2.14 -0.56 c-0.82 -0.18 -1.6 -0.42 -2.3 -0.7 c-0.76 -0.32 -1.42 -0.72 -1.92 -1.24 c-0.58 -0.58 -0.88 -1.36 -0.88 -2.3 c0 -1.3 0.5 -2.38 1.5 -3.2 c0.96 -0.78 2.36 -1.18 4.2 -1.18 s3.3 0.44 4.36 1.32 c0.98 0.8 1.52 1.86 1.58 3.14 c0.02 0.18 -0.06 0.38 -0.18 0.52 c-0.14 0.12 -0.32 0.2 -0.5 0.2 l-1.56 0 c-0.34 0 -0.64 -0.26 -0.68 -0.6 c-0.06 -0.52 -0.3 -1.24 -1.62 -1.6 c-0.4 -0.12 -0.92 -0.18 -1.52 -0.18 s-1.1 0.06 -1.48 0.2 c-0.38 0.12 -0.66 0.26 -0.84 0.42 c-0.16 0.14 -0.26 0.28 -0.3 0.42 c-0.06 0.2 -0.1 0.42 -0.1 0.64 c0 0.04 0 0.16 0.18 0.34 c0.2 0.18 0.46 0.36 0.8 0.48 c0.4 0.18 0.86 0.32 1.38 0.44 c0.54 0.14 1.1 0.28 1.68 0.42 s1.16 0.3 1.72 0.48 c0.6 0.2 1.16 0.46 1.64 0.78 z  M57.21708333333334 5 c0.38 0 0.7 0.32 0.7 0.7 l0 13.28 c0 0.38 -0.32 0.7 -0.7 0.7 l-1.5 0 c-0.38 0 -0.7 -0.32 -0.7 -0.7 l0 -13.28 c0 -0.38 0.32 -0.7 0.7 -0.7 l1.5 0 z M68.47135416666667 5.42 l5.6 13.22 c0.06 0.1 0.1 0.22 0.1 0.34 c0 0.38 -0.3 0.7 -0.7 0.7 l0 0 l-1.66 0 c-0.28 0 -0.54 -0.16 -0.64 -0.42 l-1.46 -3.44 l-5.66 0 l-1.44 3.44 c-0.1 0.26 -0.36 0.42 -0.64 0.42 l-1.66 0 c-0.24 0 -0.46 -0.12 -0.58 -0.32 c-0.14 -0.18 -0.16 -0.44 -0.06 -0.64 l5.64 -13.3 c0.1 -0.26 0.36 -0.42 0.64 -0.42 l1.88 0 c0.28 0 0.54 0.16 0.64 0.42 z M66.89135416666667 9.06 l-1.66 3.98 l3.32 0 z M88.00562500000001 5 c0.38 0 0.7 0.32 0.7 0.7 l0 13.28 c0 0.38 -0.32 0.7 -0.7 0.7 l-1.76 0 c-0.22 0 -0.42 -0.1 -0.56 -0.28 l-6.94 -9.5 l0 9.08 c0 0.38 -0.32 0.7 -0.7 0.7 l-1.5 0 c-0.38 0 -0.7 -0.32 -0.7 -0.7 l0 -13.28 c0 -0.38 0.32 -0.7 0.7 -0.7 l1.74 0 c0.22 0 0.44 0.1 0.56 0.28 l6.96 9.46 l0 -9.04 c0 -0.38 0.3 -0.7 0.68 -0.7 l1.52 0 z"/></g><g id="SvgjsG1284" rel="mainfill" name="main_text" feature="main_text_2" xmlns:name="mainText_mainfill" groupName="main_text_2" fill="#000000" transform="translate(34.720422218643726, 64.52632810130414) scale(3.494734713023044)"><path d="M14.78 18.86 c0.1 0.22 0.06 0.46 -0.06 0.66 c-0.14 0.2 -0.36 0.32 -0.58 0.32 l-13.32 0 c-0.24 0 -0.46 -0.12 -0.58 -0.32 c-0.14 -0.2 -0.16 -0.44 -0.06 -0.66 l0.62 -1.46 c0.1 -0.26 0.36 -0.44 0.64 -0.44 l9.32 0 l-0.6 -1.44 l-2.68 -6.4 l-2.68 6.4 c-0.1 0.26 -0.36 0.42 -0.64 0.42 l-1.68 0 c-0.24 0 -0.46 -0.12 -0.6 -0.32 c-0.12 -0.18 -0.14 -0.44 -0.06 -0.66 l4.06 -9.52 c0.1 -0.28 0.36 -0.44 0.64 -0.44 l1.92 0 c0.28 0 0.52 0.16 0.64 0.44 z M26.654270833333335 5 c0.38 0 0.68 0.32 0.68 0.7 l0 1.44 c0 0.38 -0.3 0.7 -0.68 0.7 l-3.94 0 l0 11.14 c0 0.38 -0.32 0.7 -0.7 0.7 l-1.5 0 c-0.4 0 -0.7 -0.32 -0.7 -0.7 l0 -11.14 l-3.94 0 c-0.38 0 -0.7 -0.32 -0.7 -0.7 l0 -1.44 c0 -0.38 0.32 -0.7 0.7 -0.7 l10.78 0 z M38.62854166666667 16.84 c0.4 0 0.7 0.32 0.7 0.7 l0 1.44 c0 0.38 -0.3 0.7 -0.7 0.7 l-8.74 0 c-0.38 0 -0.7 -0.32 -0.7 -0.7 l0 -13.28 c0 -0.38 0.32 -0.7 0.7 -0.7 l1.5 0 c0.38 0 0.7 0.32 0.7 0.7 l0 11.14 l6.54 0 z M48.5828125 5.42 l5.6 13.22 c0.06 0.1 0.1 0.22 0.1 0.34 c0 0.38 -0.3 0.7 -0.7 0.7 l0 0 l-1.66 0 c-0.28 0 -0.54 -0.16 -0.64 -0.42 l-1.46 -3.44 l-5.66 0 l-1.44 3.44 c-0.1 0.26 -0.36 0.42 -0.64 0.42 l-1.66 0 c-0.24 0 -0.46 -0.12 -0.58 -0.32 c-0.14 -0.18 -0.16 -0.44 -0.06 -0.64 l5.64 -13.3 c0.1 -0.26 0.36 -0.42 0.64 -0.42 l1.88 0 c0.28 0 0.54 0.16 0.64 0.42 z M47.0028125 9.06 l-1.66 3.98 l3.32 0 z M65.65708333333333 12.42 c1.12 0.72 1.74 1.78 1.74 3.06 c0 1.48 -0.58 2.62 -1.7 3.42 c-1.04 0.72 -2.48 1.1 -4.26 1.1 c-2.02 0 -3.6 -0.44 -4.7 -1.32 c-1.02 -0.82 -1.6 -1.98 -1.74 -3.44 c-0.02 -0.2 0.04 -0.4 0.18 -0.54 s0.32 -0.22 0.52 -0.22 l1.56 0 c0.38 0 0.68 0.28 0.7 0.64 c0.04 0.68 0.34 1.16 0.98 1.54 c0.6 0.34 1.46 0.52 2.52 0.52 c3.04 0 3.04 -1.2 3.04 -1.64 c0 -0.32 -0.12 -0.52 -0.38 -0.7 c-0.38 -0.26 -0.88 -0.48 -1.48 -0.66 c-0.66 -0.2 -1.38 -0.38 -2.14 -0.56 c-0.82 -0.18 -1.6 -0.42 -2.3 -0.7 c-0.76 -0.32 -1.42 -0.72 -1.92 -1.24 c-0.58 -0.58 -0.88 -1.36 -0.88 -2.3 c0 -1.3 0.5 -2.38 1.5 -3.2 c0.96 -0.78 2.36 -1.18 4.2 -1.18 s3.3 0.44 4.36 1.32 c0.98 0.8 1.52 1.86 1.58 3.14 c0.02 0.18 -0.06 0.38 -0.18 0.52 c-0.14 0.12 -0.32 0.2 -0.5 0.2 l-1.56 0 c-0.34 0 -0.64 -0.26 -0.68 -0.6 c-0.06 -0.52 -0.3 -1.24 -1.62 -1.6 c-0.4 -0.12 -0.92 -0.18 -1.52 -0.18 s-1.1 0.06 -1.48 0.2 c-0.38 0.12 -0.66 0.26 -0.84 0.42 c-0.16 0.14 -0.26 0.28 -0.3 0.42 c-0.06 0.2 -0.1 0.42 -0.1 0.64 c0 0.04 0 0.16 0.18 0.34 c0.2 0.18 0.46 0.36 0.8 0.48 c0.4 0.18 0.86 0.32 1.38 0.44 c0.54 0.14 1.1 0.28 1.68 0.42 s1.16 0.3 1.72 0.48 c0.6 0.2 1.16 0.46 1.64 0.78 z "/></g>
			</g>
		</svg>
    